<svg id="Group_6" data-name="Group 6" xmlns="http://www.w3.org/2000/svg" xmlns:xlink="http://www.w3.org/1999/xlink" width="396.919" height="165.865" viewBox="0 0 396.919 165.865">
  <defs>
    <clipPath id="clip-path">
      <rect id="Rectangle_6" data-name="Rectangle 6" width="396.919" height="165.865" fill="none"/>
    </clipPath>
  </defs>
  <g id="Group_5" data-name="Group 5" clip-path="url(#clip-path)">
    <path id="Path_29" data-name="Path 29" d="M275.443,80.122c-.2-.083-6.315-1.953-7.853-4.469,0,0,5.394-6.2,8.284,4.469.045.1-.229.1-.431,0m-.681-14c-5.193-1.028-9.944,6.693-9.944,6.693s-.75-.5-.906-.442-3.765,4.416-4.317,5.132c-5.528,7.233-11.063,6.38-11.1,6.407-10.256.126-13.6-8.706-13.869-9.053-2.292-4.823-2.638-4.485-3.244-4.823-.807-.461-3.86-.153-8.261,3.491-4.473,3.685-8.014,13.552-8.078,13.671-5.414,17.184-7.949,16.762-9.94,16.7s-3.636-2.307-5.3-5.376c-1.671-3.087-2.562-11.028-2.52-14.257s.32-4.469,0-4.435-1.047,1.23-1.214,2.1c-.929,4.519-.145,10.5-.145,10.953.316,5.7,4.127,16.331,9.377,16.354,5.234.042,7.408-7.492,7.876-8.718,1.063-2.767,2.589-9.369,5.791-16.02a10.421,10.421,0,0,1,9.9-6.3c.578.183,6.407,13.184,16.419,13.747,9.994.571,13.37-7.344,14.208-8.809a5.75,5.75,0,0,1,1.907-2.045c.229-.217.834.343.834.312,1.675,2.959,13.454,9.3,15.848,7.123a16.017,16.017,0,0,0,4.074-7.682c.057-1.055-2.231-13.7-7.4-14.718" fill="#e5001f"/>
    <path id="Path_30" data-name="Path 30" d="M170.226,47.842l-.171-.495,2.965-.034,1.3-.057a2.9,2.9,0,0,0-1.3-1.523c-.586-.305-8.615-5.056-10.579-5.672-.065.038-1.546,8.714-1.546,8.714s1.987.125,2.467.815a83.715,83.715,0,0,0,5.889,7.423c1.557,1.481,7.828,7.664,20.726,12.7,4.835,1.306,6.3,4.176,6.3,4.176s-5.349,4.2-9.841,7.127c-1.431.925-22.26,13.816-31.115,17.6-.289.14-8.626,3.826-10.728.407-1.785-2.916-2.124-5.939,1.409-14.847,0,.03,1.035-2.486,1.035-2.486l.686-2.657s-2.144,2.276-4.976,10.457c-1.542,3.746-3.59,13.576.171,16.942,3.769,3.35,7.55,2.154,14.421-.842,7.957-3.483,35.439-19.6,39.471-24.818a12.213,12.213,0,0,0,2.14-6.19c.079-.681.749-6.807-2.14-9.5-1.869-1.751-3.084-2.581-6.929-4.386s-14.131-6.78-18.148-11.421c-.034,0-1.511-1.435-1.511-1.435" fill="#e5001f"/>
    <path id="Path_31" data-name="Path 31" d="M158.988,70.853l3.967-7.564,8.128,5.577L167.1,76.7Z" fill="#e5001f"/>
    <path id="Path_32" data-name="Path 32" d="M82.919,114.9l3.959-7.572,8.136,5.581-3.986,7.827Z" fill="#e5001f"/>
    <path id="Path_33" data-name="Path 33" d="M95.923,113.255l3.967-7.572,8.128,5.585-3.986,7.827Z" fill="#e5001f"/>
    <path id="Path_34" data-name="Path 34" d="M199.428,59.087l3.974-7.564,8.128,5.569-3.986,7.839Z" fill="#e5001f"/>
    <path id="Path_35" data-name="Path 35" d="M212.452,57.448l3.959-7.564,8.136,5.569-3.994,7.839Z" fill="#e5001f"/>
    <path id="Path_36" data-name="Path 36" d="M140.756,30.3l-.164-.67,4.306.16a2.052,2.052,0,0,0-.67-1.568c-.571-.629-8.92-8.026-8.92-8.026l-2.661,8.692s1.858,1.016,2.029,1.481a58.107,58.107,0,0,0,2.8,6.879c.891,1.466,5.951,10.146,6.918,11.486a6.577,6.577,0,0,1,1.047,3.513,1.275,1.275,0,0,1-.316.568,31.42,31.42,0,0,1-12.1,4.134l-3.925.091-3.682,6.914a48.526,48.526,0,0,1,4.576,1.8,69.436,69.436,0,0,0,9.152,3.43c3.1.891,7.82,1.892,8.589,2.516a3.19,3.19,0,0,1,1.964,2.365s-12.094,9.136-39.135,14.911c-2.429.373-38.337,7.588-70.258-3.864-.507-.247-15.6-5.059-26.379-13.69-1.02-1-9.517-8.337-9.517-8.337L0,58.468l2.052,4.481S14.966,81.378,15.6,82,27.7,92.2,55.891,98.414c12.353,2.742,36.806,1.634,47.991-.239s38.347-9,46.848-18.544c.514-.624,4.755-8.337,4.493-10.454a5.241,5.241,0,0,0-3.606-5.227c-1.534-.381-9-2.372-9.768-2.619.243.247,7.473-3.979,7.339-11.695.248-6.107-1.29-7.721-1.675-8.589s-6.315-9.8-6.315-9.8Z" fill="#e5001f"/>
    <path id="Path_37" data-name="Path 37" d="M92.991,47.41l-4.45,7.146v.217s11.032.1,12.422.571c1.13.384-.031,1.112-.031,1.112S91.738,60.228,88.994,61.2a1.354,1.354,0,0,0-.739.712s10.344-.705,12.845-1.8c3.194-2.334,7.115-8.394,7.4-9.11s.278-1.032.053-1.192-1.572-2.516-8-2.619-7.557.217-7.557.217" fill="#e5001f"/>
    <path id="Path_38" data-name="Path 38" d="M155.432,2.182S116.384,14.7,95.061,21.579c-21.323,6.864-52.43,19.164-52.43,19.164L38.154,48.22S91.425,29.2,93.9,28.29,151.941,8.753,151.941,8.753Z" fill="#e5001f"/>
    <path id="Path_39" data-name="Path 39" d="M185.81,9.726S182.463,6.81,181.98,6.5a1.725,1.725,0,0,1-.8-1.352c3.24-2.219,4.572-.811,5,.164.8,1.785-.369,4.416-.369,4.416m1.568.944c3.563-8.052.758-9.8.049-10.275-1.667-1.1-3.765.289-5.664,1.782-2.147,1.686-3.3,3.51-2.977,6.1.293,2.387,4.347,4.946,4.991,5.342a.529.529,0,0,0,.087.057l.111.057c-1.729,2.349-8.669,8.919-15.685,13.56-4.462,2.951-16.5,11.212-16.5,11.212s2.726-1.017,3.1-1.283c1.671-.784,9.426-5.151,15.959-8.931s14.188-13.7,14.188-13.7.389.274.442.217c1.351.587,2.809,3.51,2.809,3.51s0,.32.427-.266.815-3.944.815-4.812-2.159-2.57-2.159-2.57" fill="#e5001f"/>
    <path id="Path_40" data-name="Path 40" d="M232.943,11.875s-3.457-2.916-3.952-3.236a1.693,1.693,0,0,1-.83-1.348c3.347-2.215,4.729-.807,5.17.168.826,1.785-.388,4.416-.388,4.416m1.614.944c3.7-8.044.792-9.8.061-10.275-1.728-1.108-3.887.289-5.851,1.778-2.212,1.683-3.412,3.506-3.076,6.106.3,2.38,4.492,4.95,5.15,5.342a.593.593,0,0,0,.1.057l.115.057c-1.8,2.341-8.966,8.919-16.218,13.56-4.607,2.943-17.044,11.212-17.044,11.212s2.821-1.021,3.2-1.291c1.728-.776,9.749-5.143,16.5-8.923s14.676-13.7,14.676-13.7.389.274.449.217c1.394.59,2.9,3.51,2.9,3.51s0,.32.441-.274.842-3.944.842-4.8-2.239-2.57-2.239-2.57" fill="#e5001f"/>
    <path id="Path_41" data-name="Path 41" d="M372.568,31.218s-2.767-2.33-3.178-2.585a1.368,1.368,0,0,1-.651-1.077c2.676-1.782,3.78-.659,4.145.126.651,1.427-.316,3.536-.316,3.536m1.291.754c2.95-6.43.636-7.846.046-8.215-1.386-.9-3.118.228-4.683,1.42-1.774,1.344-2.733,2.813-2.459,4.876.24,1.908,3.59,3.96,4.13,4.283a.209.209,0,0,0,.065.038l.088.05c-1.432,1.877-7.161,7.127-12.963,10.842-3.689,2.368-13.637,8.969-13.637,8.969s2.254-.8,2.562-1.024c1.378-.62,7.793-4.119,13.2-7.138S371.94,35.1,371.94,35.1s.316.225.362.179c1.123.476,2.311,2.81,2.311,2.81s0,.255.358-.217a13.113,13.113,0,0,0,.673-3.841c0-.7-1.785-2.06-1.785-2.06" fill="#e5001f"/>
    <path id="Path_42" data-name="Path 42" d="M255.874,19.187v1a11.9,11.9,0,0,0-3.434-1.728c-.042.027-.48-.19-.48-.274a20.754,20.754,0,0,1,.667-3.761,2.876,2.876,0,0,1,1.21-.663c.232,0,4.39,1.6,6.293,8.988.031,0,.876,3.4.876,3.4l.243-1.965s.9-8.158,1.055-8.915c.228-1.047,1.055-2.875,2.391-2.894s3.7,2.147,3.7,2.147L267.223,17.5s-1.889-1.636-2.627-1.682c-1.561-.111-1.85,2.4-2.265,6.685s-.674,5.246-.964,5.908a8.761,8.761,0,0,1-.612,1.135c-1.424-7.036-4.809-10.447-4.809-10.447" fill="#e5001f"/>
    <path id="Path_43" data-name="Path 43" d="M324.93,38.933v.994a11.967,11.967,0,0,0-3.442-1.721c-.045.027-.475-.206-.475-.278a21.485,21.485,0,0,1,.654-3.761,2.82,2.82,0,0,1,1.226-.659c.225,0,4.374,1.588,6.286,8.988.026,0,.86,3.4.86,3.4l.259-1.957s.894-8.158,1.058-8.923c.232-1.043,1.047-2.867,2.391-2.886,1.325-.03,3.693,2.14,3.693,2.14l-1.177,2.977s-1.88-1.637-2.619-1.687c-1.568-.1-1.858,2.406-2.261,6.7-.419,4.29-.678,5.246-.986,5.9a8.92,8.92,0,0,1-.6,1.139c-1.412-7.036-4.8-10.454-4.8-10.454" fill="#e5001f"/>
    <path id="Path_44" data-name="Path 44" d="M258.318,51.024a3.083,3.083,0,0,0-1.1.689,23.818,23.818,0,0,0-4.138,8.878c-1.42,5.623,1.815,6.628,1.815,6.628s2.068.94,3.937-3.537a7.391,7.391,0,0,0,.659-2.257s-.031-.609-.533-.175c-.941.807-.777,1.819-1.108,2.189-.632.7-.659.609-.868.662s-3.244-.03-2.284-4.5a40.2,40.2,0,0,1,2.653-6.509c0-.054.967-2.064.967-2.064" fill="#e5001f"/>
    <path id="Path_45" data-name="Path 45" d="M115.81,64.709a3.135,3.135,0,0,0-1.1.682,23.689,23.689,0,0,0-4.138,8.889c-1.42,5.611,1.816,6.62,1.816,6.62s2.067.94,3.936-3.54a7.492,7.492,0,0,0,.659-2.254s-.031-.605-.541-.175c-.937.8-.769,1.823-1.1,2.193-.632.7-.659.609-.868.666s-3.244-.034-2.288-4.515a40.3,40.3,0,0,1,2.657-6.5c0-.054.967-2.064.967-2.064" fill="#e5001f"/>
    <path id="Path_46" data-name="Path 46" d="M285.954,28.5s-19.758,6.681-28.56,9.67-25.305,9.9-25.305,9.9L230.5,52.208s48.383-18.338,52.278-19.024c-.076-.083,3.175-4.686,3.175-4.686" fill="#e5001f"/>
    <path id="Path_47" data-name="Path 47" d="M396.908,71.21l-.019.049c.053-.026.019-.049.019-.049" fill="#e5001f"/>
    <path id="Path_48" data-name="Path 48" d="M394.139,71.071a84.521,84.521,0,0,1-24.147-8c-10.9-5.471-16.6-4.005-16.747-3.959-10.618,2.585-10.816,14.028-10.7,15.54.087,1.5,1.994,8.337,1.994,8.337s-.9-.251-1.035-.251c-7.854-3.118-12.871-11.448-13.644-12.575-6.567-10.7-20.333-24.521-21.62-25.891S295.116,32.21,295.116,32.21l7.07-3.609c21.749-8.966,42.939-14.779,53.663-16.191,7.557-.994,6.567,3.993,6.179,4.488s-3.944,6.476-4.466,7.218c-.506.742-5.105,9.7-6.1,12.445-1.53,4.317-.933,5.4-.933,5.4S352,39.169,352,39.047c2.136-4.9,6.263-11.943,9.776-17.794,2.212-3.692,4.976-7.1,5.273-12.947.3-6-16.339-2.486-16.6-2.364-33.372,7.629-57.006,19.67-57.006,19.67l-2.574,4.6-1.808,5.608s7.207,8.459,7.348,8.459c10.119,11.79,23.055,31.754,23.154,32.116.255.914.86,1.827.342,2.406-1.092,1.237-8.307,3.411-8.307,3.411l-.658-1.085c-10.93-19.172-19.549-3.11-19.819-2.117-3.3,6.358.133,9.137.133,9.263,4.42,5.763,15.97,1.941,16.358,2.436a11.162,11.162,0,0,1,1.028,2.5c-15.186,16.009-31.164,19.819-33.939,20.025C258.74,114.338,259.642,101.4,260.175,96.9c.454-4.081,3.678-13.568,3.678-13.568l-1.485,1.37s-.2.4-.712,1.276c-3.563,6.472-4.465,15.422-4.465,16.67-.255,22.576,18.532,22.195,33.349,12.312,15.247-10.172,17.432-13.777,19.336-16.572,1.5-2.2,2.288-9.1,2.288-9.1L318,86.8a12.746,12.746,0,0,0,4.29-8.425c.67-5.752-1.081-8.863-1.081-8.863l.1-.841a151.31,151.31,0,0,0,10.949,15.163c6.871,8.425,14.459,7.721,14.459,7.721l.533,5.406.632-.191s.258-.038.837-1.351a17.039,17.039,0,0,0,.693-4.348s1.923-.456,1.976-.407c7.286-1.173,26.39-10.648,33.882-11.946a30.471,30.471,0,0,1,7.892.076l3.723-7.534a11.548,11.548,0,0,1-2.749-.191m-98.9,11.166c-.084-.057-.294-.529-.107-.715a3.773,3.773,0,0,1,4.233-1.972c.061,0,3.651,1.279,4.885,3.81,0,0-6.826.617-9.011-1.123m69.953-3.27a148.193,148.193,0,0,1-16.046,4.215s-3.549-11.06-3.381-11.89a7.244,7.244,0,0,1,4.127-4.047c2.33-.769,7.332-1.058,12.475,1.428,4.953,2.4,12.868,5.71,13.584,5.889.749.187,1.164.3,1.164.3s-10.716,3.678-11.923,4.1" fill="#e5001f"/>
    <path id="Path_49" data-name="Path 49" d="M16.82,146.362a7.253,7.253,0,0,0-3.666-.868,7.024,7.024,0,0,0-2.859.624,7.246,7.246,0,0,0-2.543,1.809,9.134,9.134,0,0,0-1.8,3.061,12.055,12.055,0,0,0-.689,4.282,11.265,11.265,0,0,0,.522,3.484,8.156,8.156,0,0,0,1.484,2.752,6.98,6.98,0,0,0,2.372,1.835,7.689,7.689,0,0,0,3.236.647,8.333,8.333,0,0,0,.921-.049c.351-.023.682-.061,1.005-.1a5.714,5.714,0,0,0,.895-.179,1.611,1.611,0,0,0,.59-.228,5.921,5.921,0,0,0,.08-.929c.012-.369.019-.792.019-1.249,0-1.694-.034-2.931-.1-3.734s-.114-1.341-.133-1.634a8.255,8.255,0,0,0,.83.1c.343.038.853.05,1.5.05.757,0,1.325-.012,1.686-.05a8.093,8.093,0,0,0,.861-.1,5.255,5.255,0,0,0-.1.819c-.038.365-.069.8-.084,1.287s-.038,1.02-.049,1.568-.012,1.081-.012,1.58v1.032c0,.521,0,1,0,1.454a7.179,7.179,0,0,0,.084.956,37.811,37.811,0,0,1-4.18.944,26.009,26.009,0,0,1-4.177.342,17.035,17.035,0,0,1-4.956-.7,11.359,11.359,0,0,1-3.914-2.079,9.736,9.736,0,0,1-2.577-3.278,9.871,9.871,0,0,1-.921-4.332,12.752,12.752,0,0,1,.993-5.215,10.048,10.048,0,0,1,2.722-3.72,11.443,11.443,0,0,1,4.116-2.246,17.139,17.139,0,0,1,5.131-.75,15.647,15.647,0,0,1,4.12.483,18.016,18.016,0,0,1,3.422,1.4c-.167.549-.339,1.085-.487,1.607s-.286,1.058-.4,1.6h-.426a7.756,7.756,0,0,0-2.513-2.269" fill="#e5001f"/>
    <path id="Path_50" data-name="Path 50" d="M43.936,150.4a8.169,8.169,0,0,0-1.39-2.738,6.219,6.219,0,0,0-2.155-1.736,6.478,6.478,0,0,0-2.771-.613,5.271,5.271,0,0,0-2.859.781,6.472,6.472,0,0,0-2.14,2.063,10.186,10.186,0,0,0-1.332,3.084,15.157,15.157,0,0,0-.461,3.773,14.906,14.906,0,0,0,.529,4.222A7.754,7.754,0,0,0,32.8,162a5.364,5.364,0,0,0,2.09,1.515,6.728,6.728,0,0,0,2.5.473,6.187,6.187,0,0,0,4.934-2.41,9.361,9.361,0,0,0,1.531-3.1,15.416,15.416,0,0,0,.578-4.439,12.185,12.185,0,0,0-.5-3.647m-17.364-.012a11.106,11.106,0,0,1,2.421-3.571,11.838,11.838,0,0,1,3.788-2.41,13.647,13.647,0,0,1,4.934-.864,14.888,14.888,0,0,1,4.66.689,10.283,10.283,0,0,1,3.738,2.064,9.734,9.734,0,0,1,2.52,3.479,12.263,12.263,0,0,1,.922,4.934,10.842,10.842,0,0,1-.883,4.386,11.208,11.208,0,0,1-2.475,3.555,11.609,11.609,0,0,1-3.761,2.361,13.325,13.325,0,0,1-4.816.841,16.441,16.441,0,0,1-4.641-.613,9.951,9.951,0,0,1-3.78-1.964,9.584,9.584,0,0,1-2.536-3.48,12.106,12.106,0,0,1-.944-5.048,11.1,11.1,0,0,1,.853-4.359" fill="#e5001f"/>
    <path id="Path_51" data-name="Path 51" d="M66.052,151.651c1.013-2.676,1.938-5.253,2.752-7.7a9.961,9.961,0,0,0,1.379.129,10.115,10.115,0,0,0,1.378-.129q-.789,1.838-1.881,4.435c-.742,1.736-1.492,3.559-2.288,5.5s-1.568,3.914-2.345,5.9c-.773,2.014-1.454,3.875-2.075,5.634-.407-.023-.864-.049-1.374-.049s-.952.026-1.378.049c-.305-.826-.682-1.846-1.135-3.019-.457-1.2-.936-2.448-1.446-3.8-.5-1.325-1.047-2.688-1.607-4.081s-1.108-2.753-1.626-4.055-1.012-2.508-1.477-3.643-.86-2.078-1.187-2.87c.479.026.944.068,1.416.091s.936.038,1.4.038.913-.011,1.378-.038.917-.065,1.382-.091c.35,1.161.746,2.4,1.2,3.685s.91,2.6,1.4,3.951.975,2.692,1.485,4.055,1,2.688,1.492,3.989q1.622-3.957,3.16-7.979" fill="#e5001f"/>
    <path id="Path_52" data-name="Path 52" d="M75.969,147.993q-.057-2.026-.16-4.054l2.775.08q1.365.051,2.776.049,2.317,0,4.119-.042c1.2-.023,2-.049,2.421-.087a6.059,6.059,0,0,0-.122,1.313,7.54,7.54,0,0,0,.035.777,5.991,5.991,0,0,0,.087.624c-.6-.05-1.26-.088-1.987-.141-.72-.023-1.416-.076-2.09-.11s-1.295-.08-1.839-.092-.921-.038-1.157-.038c-.076,1.146-.111,2.292-.111,3.415s-.011,2.258-.011,3.4c1.348-.012,2.573-.065,3.666-.088,1.1-.053,2.242-.1,3.426-.179-.061.369-.1.64-.118.83a4.214,4.214,0,0,0-.034.6,2.938,2.938,0,0,0,.046.51c.034.179.068.434.106.777-2.375-.179-4.747-.267-7.092-.267,0,.674-.019,1.336-.031,2s-.026,1.336-.026,2c0,1.367.038,2.665.091,3.914,1.188,0,2.383-.038,3.575-.1s2.395-.183,3.594-.331c-.038.228-.069.43-.095.62s-.02.449-.02.781,0,.586.02.788a3.461,3.461,0,0,0,.095.472c-.56-.023-1.257-.023-2.083-.038s-1.957-.012-3.392-.012h-4.96c-.465,0-.823,0-1.059.012s-.445.015-.605.038c.069-1.3.122-2.612.16-3.963s.065-2.867.065-4.614V152.6c0-1.736-.027-3.267-.065-4.6" fill="#e5001f"/>
    <path id="Path_53" data-name="Path 53" d="M102.834,147.622a2.552,2.552,0,0,0-.859-1.233,3.111,3.111,0,0,0-1.512-.537,15.582,15.582,0,0,0-2.2-.141c-.058,2.844-.084,5.672-.084,8.528.121.015.235.026.357.038a2.277,2.277,0,0,0,.316.015,4.28,4.28,0,0,0,3.171-1.108,4.634,4.634,0,0,0,1.09-3.369,6.95,6.95,0,0,0-.283-2.193m-4.651,7.93v1.275c0,1.733.018,3.274.048,4.615s.093,2.664.172,3.978a11.117,11.117,0,0,0-1.164-.05h-2.8a10.753,10.753,0,0,0-1.154.05c.093-1.3.152-2.627.192-3.967.059-1.352.08-2.867.08-4.614v-4.245c0-1.732-.021-3.263-.08-4.6-.04-1.355-.1-2.7-.192-4.058.359.038.747.065,1.162.091s.879.038,1.408.038c.556,0,1.211-.026,1.919-.064.732-.038,1.619-.065,2.688-.065.792,0,1.474.027,2.032.065a10.77,10.77,0,0,1,1.462.19,5.143,5.143,0,0,1,1.066.331,4.338,4.338,0,0,1,.861.488,4.834,4.834,0,0,1,2.032,4.119,5.448,5.448,0,0,1-1.252,3.719,6.859,6.859,0,0,1-3.6,2.029q1.5,2.655,3.224,5.3t3.448,5.239c-.487-.038-.95-.05-1.407-.05h-2.833c-.469,0-.948.012-1.431.05l-5.6-9.868Z" fill="#e5001f"/>
    <path id="Path_54" data-name="Path 54" d="M114.442,146.54q-.085-1.456-.114-2.589a7.755,7.755,0,0,0,2.828,0c2.269,2.509,4.515,5,6.739,7.432s4.507,4.922,6.852,7.442V153.08c0-1.02-.019-2.04-.03-3.022s-.015-1.911-.027-2.741-.038-1.542-.065-2.155a10.137,10.137,0,0,0-.121-1.211,7.7,7.7,0,0,0,2.817,0c-.1,1.889-.183,3.609-.248,5.14s-.106,2.981-.148,4.332-.069,2.688-.088,4.017c0,1.313-.011,2.725-.011,4.233v3.746c-.407-.027-.841-.049-1.283-.049s-.868.022-1.218.049q-6.459-7.5-13.679-15.106c-.011.613-.023,1.226-.038,1.823s-.019,1.222-.019,1.851V157.6c0,1.264.019,2.307.019,3.19s.027,1.618.053,2.216.039,1.1.058,1.492c.019.381.038.69.049.918a6.838,6.838,0,0,0-.738-.049h-.709c-.475,0-.963.022-1.446.049a12.951,12.951,0,0,0,.167-1.785c.061-1.021.133-2.269.2-3.735s.129-3.061.187-4.782.083-3.365.083-4.945c0-1.439-.034-2.65-.072-3.632" fill="#e5001f"/>
    <path id="Path_55" data-name="Path 55" d="M141.9,158.407c-.164,2.334-.339,4.667-.495,7.013a7,7,0,0,0-.754-.05H139.2a7,7,0,0,0-.739.05q1-5.374,1.778-10.694t1.447-10.789c.228.038.442.068.64.091a5.659,5.659,0,0,0,.639.038,5.372,5.372,0,0,0,.594-.038c.209-.023.426-.053.659-.091.559,1.252,1.157,2.524,1.777,3.814s1.223,2.574,1.843,3.861,1.237,2.539,1.843,3.776,1.21,2.4,1.77,3.491q1.884-3.5,3.742-7.328t3.556-7.614a6.884,6.884,0,0,0,2.653,0c.214,1.8.446,3.723.682,5.79s.464,4.077.693,6.042.464,3.811.7,5.52.434,3.084.621,4.131c-.408-.027-.842-.05-1.272-.05h-2.547c-.445,0-.875.023-1.313.05-.1-2.155-.282-4.477-.522-6.975s-.479-4.983-.734-7.442h-.058c-1.2,2.459-2.356,4.88-3.513,7.252-1.139,2.371-2.285,4.755-3.4,7.165a1.149,1.149,0,0,0-.3-.027,1.294,1.294,0,0,0-.3-.023,29.405,29.405,0,0,0-.6.05q-1.7-3.519-3.362-7.013c-1.119-2.334-2.269-4.69-3.457-7.089h-.072c-.331,2.4-.582,4.755-.746,7.089" fill="#e5001f"/>
    <path id="Path_56" data-name="Path 56" d="M169.2,147.993q-.057-2.026-.171-4.054,1.416.039,2.771.08,1.388.051,2.787.049c1.542,0,2.912-.015,4.123-.042s2.01-.049,2.421-.087a6.059,6.059,0,0,0-.122,1.313c0,.331.015.586.023.777.031.194.057.4.1.624-.6-.05-1.268-.088-1.987-.141-.72-.023-1.42-.076-2.1-.11s-1.287-.08-1.827-.092-.937-.038-1.161-.038c-.073,1.146-.111,2.292-.122,3.415s-.015,2.258-.015,3.4c1.366-.012,2.585-.065,3.681-.088,1.1-.053,2.235-.1,3.43-.179-.065.369-.1.64-.129.83a5.711,5.711,0,0,0-.027.6,2.938,2.938,0,0,0,.046.51c.03.179.064.434.11.777q-3.568-.269-7.111-.267c0,.674,0,1.336-.023,2s-.019,1.336-.019,2c0,1.367.03,2.665.1,3.914,1.188,0,2.372-.038,3.556-.1s2.4-.183,3.609-.331a5.29,5.29,0,0,0-.084.62,5.144,5.144,0,0,0-.046.781,5.33,5.33,0,0,0,.046.788,1.97,1.97,0,0,0,.084.472c-.564-.023-1.264-.023-2.083-.038s-1.957-.012-3.4-.012H170.7c-.457,0-.818,0-1.054.012s-.442.015-.613.038c.076-1.3.133-2.612.171-3.963s.057-2.867.057-4.614V152.6c0-1.736-.019-3.267-.057-4.6" fill="#e5001f"/>
    <path id="Path_57" data-name="Path 57" d="M186.977,146.54c-.046-.971-.084-1.835-.1-2.589a11.964,11.964,0,0,0,1.409.13,12.155,12.155,0,0,0,1.408-.13c2.277,2.509,4.527,5,6.743,7.432s4.507,4.922,6.848,7.442V153.08c0-1.02-.007-2.04-.023-3.022s-.015-1.911-.03-2.741-.03-1.542-.065-2.155a9.807,9.807,0,0,0-.11-1.211,11.763,11.763,0,0,0,1.4.13,12.1,12.1,0,0,0,1.4-.13c-.11,1.889-.186,3.609-.247,5.14s-.118,2.981-.156,4.332-.065,2.688-.076,4.017c0,1.313-.012,2.725-.012,4.233v3.746c-.422-.027-.849-.049-1.286-.049-.453,0-.861.022-1.219.049q-6.453-7.5-13.686-15.106c-.011.613-.026,1.226-.026,1.823s-.019,1.222-.019,1.851V157.6c0,1.264.007,2.307.019,3.19s.026,1.618.038,2.216c.034.6.045,1.1.072,1.492.011.381.03.69.053.918a6.968,6.968,0,0,0-.746-.049h-.708c-.472,0-.963.022-1.435.049a17.52,17.52,0,0,0,.152-1.785c.065-1.021.126-2.269.209-3.735q.1-2.2.187-4.782c.049-1.721.084-3.365.084-4.945,0-1.439-.035-2.65-.084-3.632" fill="#e5001f"/>
    <path id="Path_58" data-name="Path 58" d="M216.386,147.343a7.552,7.552,0,0,0-.084-1.1c-.312,0-.689.011-1.153.034s-.956.053-1.477.091-1.055.065-1.588.13l-1.511.179c.045-.233.076-.461.114-.678a5.269,5.269,0,0,0,.046-.689,5.371,5.371,0,0,0-.046-.7c-.038-.217-.069-.445-.114-.677.719.015,1.351.03,1.926.053s1.157.027,1.763.038,1.233.012,1.937.027,1.523.011,2.521.011c.974,0,1.816,0,2.505-.011.708-.015,1.336-.015,1.93-.027s1.153-.023,1.713-.038,1.15-.038,1.785-.053c-.038.232-.068.46-.1.677a6.944,6.944,0,0,0-.05.7,6.854,6.854,0,0,0,.05.689c.034.217.064.445.1.678-.407-.054-.879-.115-1.408-.179-.514-.065-1.039-.1-1.542-.13s-1-.064-1.454-.091-.845-.034-1.165-.034c-.015.114-.027.255-.038.434s-.015.418-.015.662v9.483c0,1.733.015,3.274.053,4.614s.087,2.665.156,3.979a10.731,10.731,0,0,0-1.15-.05h-2.806a10.682,10.682,0,0,0-1.145.05c.087-1.314.144-2.627.19-3.979s.068-2.881.068-4.614V149c0-.613-.011-1.161-.011-1.656" fill="#e5001f"/>
    <path id="Path_59" data-name="Path 59" d="M258.473,150.4a8.281,8.281,0,0,0-1.39-2.738,6.243,6.243,0,0,0-2.162-1.736,6.444,6.444,0,0,0-2.764-.613,5.355,5.355,0,0,0-2.87.781,6.6,6.6,0,0,0-2.136,2.063,10.379,10.379,0,0,0-1.325,3.084,15.021,15.021,0,0,0-.457,3.773,14.631,14.631,0,0,0,.526,4.222A7.672,7.672,0,0,0,247.338,162a5.224,5.224,0,0,0,2.1,1.515,6.7,6.7,0,0,0,2.5.473,6.173,6.173,0,0,0,2.7-.6,6.009,6.009,0,0,0,2.231-1.808,9.583,9.583,0,0,0,1.538-3.1,15.141,15.141,0,0,0,.579-4.439,12.056,12.056,0,0,0-.5-3.647m-17.356-.012a10.933,10.933,0,0,1,2.421-3.571,11.679,11.679,0,0,1,3.773-2.41,13.643,13.643,0,0,1,4.934-.864,14.767,14.767,0,0,1,4.652.689,10.3,10.3,0,0,1,3.754,2.064,9.758,9.758,0,0,1,2.52,3.479,12.263,12.263,0,0,1,.921,4.934,10.7,10.7,0,0,1-.891,4.386,11.34,11.34,0,0,1-2.459,3.555,11.569,11.569,0,0,1-3.773,2.361,13.346,13.346,0,0,1-4.812.841,16.473,16.473,0,0,1-4.64-.613,9.926,9.926,0,0,1-3.781-1.964,9.57,9.57,0,0,1-2.535-3.48,12.214,12.214,0,0,1-.952-5.048,10.965,10.965,0,0,1,.868-4.359" fill="#e5001f"/>
    <path id="Path_60" data-name="Path 60" d="M269.224,147.993q-.057-2.026-.171-4.054l2.779.08c.91.034,1.842.049,2.783.049q2.307,0,4.119-.042c1.2-.023,2-.049,2.421-.087a5.786,5.786,0,0,0-.126,1.313c0,.331.012.586.031.777a5.2,5.2,0,0,0,.1.624c-.605-.05-1.268-.088-1.991-.141-.723-.023-1.416-.076-2.086-.11s-1.3-.08-1.835-.092-.94-.038-1.161-.038c-.084,1.146-.13,2.292-.141,3.415s-.012,2.258-.012,3.4c1.348-.012,2.57-.065,3.67-.088,1.1-.053,2.243-.1,3.43-.179-.06.369-.1.64-.129.83-.011.175-.027.381-.027.6a3.5,3.5,0,0,0,.042.51c.034.179.076.434.114.777q-3.568-.269-7.1-.267v1.58c0,1.747.016,3.263.058,4.614s.106,2.65.182,3.952a11.034,11.034,0,0,0-1.161-.05H270.2a11.023,11.023,0,0,0-1.146.05c.076-1.3.133-2.612.171-3.963s.057-2.867.057-4.614V152.6c0-1.736-.019-3.267-.057-4.6" fill="#e5001f"/>
    <path id="Path_61" data-name="Path 61" d="M301.7,159.132v1.877c0,.609,0,1.158.015,1.656.031.5.031.826.031.967.316.016.685.038,1.119.065.442.011.982.027,1.629.027a6.982,6.982,0,0,0,5.593-2.41c1.378-1.607,2.056-4.039,2.056-7.295a10.749,10.749,0,0,0-.511-3.464,7.584,7.584,0,0,0-1.45-2.627,6.555,6.555,0,0,0-2.25-1.656,7.229,7.229,0,0,0-2.939-.586c-.761,0-1.363.023-1.823.065-.473.023-.948.061-1.424.1,0,.152-.016.472-.031.971s-.023,1.058-.023,1.7l.008,1.87Zm-4.694-11.139c-.046-1.34-.114-2.688-.194-4.054.354.038.735.08,1.157.1s.88.027,1.4.027c.689,0,1.462-.027,2.315-.049.853-.054,1.983-.08,3.346-.08a23.521,23.521,0,0,1,4.911.483,10.508,10.508,0,0,1,3.8,1.645,7.6,7.6,0,0,1,2.467,3.11,11.907,11.907,0,0,1,.875,4.922,12.225,12.225,0,0,1-.856,4.691,10.667,10.667,0,0,1-2.345,3.567,10.183,10.183,0,0,1-3.442,2.273,11.209,11.209,0,0,1-4.18.788c-1.561,0-2.9-.015-4.005-.023-1.112-.027-2.063-.027-2.882-.027h-1.4a10.92,10.92,0,0,0-1.157.05c.08-1.3.148-2.612.194-3.963s.065-2.867.065-4.6v-4.245c0-1.747-.019-3.278-.065-4.614" fill="#e5001f"/>
    <path id="Path_62" data-name="Path 62" d="M328.807,165.43a8.131,8.131,0,0,1-3.023-1.4,6.939,6.939,0,0,1-2.014-2.535,8.989,8.989,0,0,1-.738-3.777V153.64c0-.56.011-1.1.026-1.633.012-.51.027-1.059.027-1.618,0-1.694-.015-3.057-.042-4.108-.011-1.039-.053-1.82-.087-2.341.415.038.833.064,1.279.087s.868.038,1.3.038.845-.011,1.279-.038.876-.049,1.287-.087c-.217,2.025-.331,3.913-.369,5.657s-.069,3.506-.069,5.318a21.445,21.445,0,0,0,.407,4.6,6.528,6.528,0,0,0,1.211,2.714,3.658,3.658,0,0,0,1.949,1.26,10.526,10.526,0,0,0,2.692.32,4.279,4.279,0,0,0,2.935-.944,5.747,5.747,0,0,0,1.614-2.509,13.464,13.464,0,0,0,.678-3.586c.08-1.348.125-2.752.125-4.218,0-1.439-.026-2.882-.068-4.31s-.107-2.866-.2-4.3c.285.038.567.064.834.087s.525.038.757.038a7.307,7.307,0,0,0,.781-.038c.251-.023.514-.049.784-.087-.038.457-.084,1.081-.13,1.85-.03.761-.076,1.667-.121,2.676s-.077,2.128-.1,3.35c-.046,1.211-.061,2.513-.061,3.864,0,3.617-.769,6.233-2.33,7.812s-3.857,2.361-6.879,2.361a15.693,15.693,0,0,1-3.735-.423" fill="#e5001f"/>
    <path id="Path_63" data-name="Path 63" d="M357.8,156.228a3.677,3.677,0,0,0-2.863-1.085c-.3,0-.548.015-.769.026-.206.012-.392.027-.583.027,0,.43-.007.879-.019,1.351s-.026,1.032-.026,1.668c0,.5.007,1.009.026,1.53s.019,1.032.019,1.531.008.955.023,1.378.019.75.019,1.031c.3.012.564.023.819.023.247.016.548.016.891.016a3.154,3.154,0,0,0,1.328-.282,2.856,2.856,0,0,0,1.081-.826,4.246,4.246,0,0,0,.762-1.329,5.209,5.209,0,0,0,.278-1.808,4.639,4.639,0,0,0-.986-3.251m.59-8.273a3.031,3.031,0,0,0-.579-1.15,3.183,3.183,0,0,0-1.039-.788,3.711,3.711,0,0,0-1.561-.293c-.464,0-.78,0-.956.012s-.369.038-.59.076c-.038.78-.068,1.557-.1,2.36s-.03,1.466-.03,2c0,.563.007,1.111.026,1.622s.019,1.031.019,1.579H355a3.62,3.62,0,0,0,1.3-.255,3.428,3.428,0,0,0,1.15-.738,3.556,3.556,0,0,0,.807-1.238,4.472,4.472,0,0,0,.312-1.747,5.693,5.693,0,0,0-.171-1.439m-9.51.038c-.057-1.34-.126-2.688-.228-4.043.35.027.738.069,1.161.091s.883.027,1.408.027q1.342,0,2.821-.049c.971-.054,1.915-.069,2.817-.069a10.723,10.723,0,0,1,2.57.282,5.909,5.909,0,0,1,2.006.857,3.8,3.8,0,0,1,1.3,1.5,4.9,4.9,0,0,1,.453,2.205,4.278,4.278,0,0,1-.536,2.2,5.263,5.263,0,0,1-1.295,1.53,5.818,5.818,0,0,1-1.675.956,7.456,7.456,0,0,1-1.606.472v.076a7.082,7.082,0,0,1,1.7.331,6.327,6.327,0,0,1,1.847.918,5.356,5.356,0,0,1,1.48,1.606,4.493,4.493,0,0,1,.61,2.383,6.305,6.305,0,0,1-.61,2.871,5.45,5.45,0,0,1-1.629,1.937,6.353,6.353,0,0,1-2.345,1.043,12.575,12.575,0,0,1-2.714.294c-.842,0-1.618-.015-2.334-.023s-1.492-.027-2.284-.027h-1.729c-.593,0-1.073.027-1.423.05.1-1.3.171-2.612.228-3.952s.084-2.878.084-4.614v-4.245c0-1.747-.035-3.262-.084-4.614" fill="#e5001f"/>
    <path id="Path_64" data-name="Path 64" d="M375.01,149.8c-.533,1.252-1.051,2.474-1.534,3.7s-.948,2.46-1.4,3.735H377.8c-.468-1.275-.917-2.509-1.366-3.735s-.918-2.444-1.428-3.7M386.1,165.418c-.5-.038-.975-.049-1.428-.049H382c-.437,0-.89.011-1.321.049-.335-1.032-.689-2.063-1.031-3.133-.362-1.062-.739-2.12-1.135-3.19-.67-.012-1.336-.023-2.006-.023s-1.325-.015-1.995-.015c-.54,0-1.085,0-1.629.015s-1.085.011-1.63.023c-.418,1.07-.8,2.128-1.153,3.19s-.689,2.1-.982,3.133a4.828,4.828,0,0,0-.731-.049h-1.481a6.272,6.272,0,0,0-.815.049c.251-.548.575-1.3,1-2.257.408-.956.88-2.041,1.378-3.263.488-1.2,1.044-2.509,1.607-3.887s1.15-2.794,1.725-4.207,1.134-2.817,1.682-4.206c.556-1.363,1.066-2.654,1.523-3.838.217.038.4.092.6.126a2.653,2.653,0,0,0,.586.053,2.6,2.6,0,0,0,.594-.053c.194-.034.388-.088.6-.126.674,1.77,1.382,3.67,2.144,5.7s1.534,4.017,2.311,5.954,1.511,3.811,2.246,5.559,1.393,3.224,2.006,4.446" fill="#e5001f"/>
    <path id="Path_65" data-name="Path 65" d="M390.966,147.993q-.069-2.026-.2-4.054c.35.038.731.064,1.154.087s.879.042,1.4.042.99-.015,1.4-.042.8-.049,1.158-.087c-.08,1.351-.134,2.7-.172,4.054s-.049,2.867-.049,4.6v4.245c0,1.747.023,3.274.049,4.614s.092,2.661.172,3.963a10.879,10.879,0,0,0-1.158-.05h-2.8a10.8,10.8,0,0,0-1.154.05c.088-1.3.152-2.612.2-3.963s.068-2.867.068-4.614V152.6c0-1.736-.011-3.267-.068-4.6" fill="#e5001f"/>
  </g>
</svg>
