<svg xmlns="http://www.w3.org/2000/svg" xml:space="preserve" style="fill-rule:evenodd;clip-rule:evenodd;stroke-linejoin:round;stroke-miterlimit:2" viewBox="0 0 576 150"><path d="M.074-.717h.139l.206.606.205-.606h.137V0H.669v-.423L.67-.496l.001-.109L.466 0H.37L.164-.605v.022l.001.08.002.08V0H.074v-.717Z" style="fill-rule:nonzero" transform="matrix(64.30505 0 0 64.30507 181.736 74.978)"/><path d="M.021-.717h.113l.206.344.206-.344H.66l-.271.428V0H.292v-.289L.021-.717Z" style="fill-rule:nonzero" transform="matrix(64.30505 0 0 64.30507 232.087 74.978)"/><path d="M.086-.603a.17.17 0 0 1 .019-.08c.021-.03.061-.045.119-.045l.017.001.02.001v.08l-.02-.001H.23c-.027 0-.043.007-.048.021a.414.414 0 0 0-.008.105h.087v.07H.173V0H.086v-.451H.014v-.07h.072v-.082Z" style="fill-rule:nonzero" transform="matrix(36.82024 0 0 36.82027 185.973 110.221)"/><path d="M.067-.523H.15v.09a.205.205 0 0 1 .051-.064.13.13 0 0 1 .092-.038l.008.001.02.002v.093a.078.078 0 0 0-.014-.002L.292-.442c-.044 0-.078.014-.102.043a.15.15 0 0 0-.035.098V0H.067v-.523Z" style="fill-rule:nonzero" transform="matrix(36.82024 0 0 36.82027 194.362 110.221)"/><path d="M.282-.535c.037 0 .073.009.108.026.035.018.061.04.08.068a.242.242 0 0 1 .035.092.625.625 0 0 1 .008.116H.129a.228.228 0 0 0 .038.127c.023.032.06.048.109.048a.142.142 0 0 0 .11-.045.172.172 0 0 0 .033-.061h.086a.226.226 0 0 1-.066.122.199.199 0 0 1-.099.053.308.308 0 0 1-.071.008.22.22 0 0 1-.166-.071.28.28 0 0 1-.068-.199.3.3 0 0 1 .069-.205.226.226 0 0 1 .178-.079Zm.14.232a.224.224 0 0 0-.025-.092C.373-.437.333-.458.277-.458a.135.135 0 0 0-.102.044.163.163 0 0 0-.043.111h.29Z" style="fill-rule:nonzero" transform="matrix(36.82024 0 0 36.82027 204.782 110.221)"/><path d="M.282-.535c.037 0 .073.009.108.026.035.018.061.04.08.068a.242.242 0 0 1 .035.092.625.625 0 0 1 .008.116H.129a.228.228 0 0 0 .038.127c.023.032.06.048.109.048a.142.142 0 0 0 .11-.045.172.172 0 0 0 .033-.061h.086a.226.226 0 0 1-.066.122.199.199 0 0 1-.099.053.308.308 0 0 1-.071.008.22.22 0 0 1-.166-.071.28.28 0 0 1-.068-.199.3.3 0 0 1 .069-.205.226.226 0 0 1 .178-.079Zm.14.232a.224.224 0 0 0-.025-.092C.373-.437.333-.458.277-.458a.135.135 0 0 0-.102.044.163.163 0 0 0-.043.111h.29Z" style="fill-rule:nonzero" transform="matrix(36.82024 0 0 36.82027 223.42 110.221)"/><path d="M.067-.717h.088V0H.067z" style="fill-rule:nonzero" transform="matrix(36.82024 0 0 36.82027 242.056 110.221)"/><path d="M.272-.057c.058 0 .098-.022.12-.066A.337.337 0 0 0 .424-.27a.255.255 0 0 0-.023-.119C.376-.437.333-.461.273-.461c-.054 0-.093.02-.117.061a.282.282 0 0 0-.037.149c0 .055.012.102.037.139.024.037.063.055.116.055Zm.003-.481c.068 0 .125.022.171.067.047.045.07.111.07.199a.34.34 0 0 1-.061.209C.414-.008.35.019.264.019a.217.217 0 0 1-.172-.073.29.29 0 0 1-.063-.196.31.31 0 0 1 .067-.21.223.223 0 0 1 .179-.078Z" style="fill-rule:nonzero" transform="matrix(36.82024 0 0 36.82027 248.396 110.221)"/><path d="M.249-.532a.19.19 0 0 1 .107.03.217.217 0 0 1 .051.05v-.066h.081v.476a.346.346 0 0 1-.029.157C.423.186.354.221.252.221A.249.249 0 0 1 .11.183.145.145 0 0 1 .046.065h.089a.098.098 0 0 0 .026.054c.02.02.051.029.093.029.068 0 .112-.023.133-.071a.41.41 0 0 0 .017-.15.174.174 0 0 1-.064.06.208.208 0 0 1-.098.019.209.209 0 0 1-.148-.06C.051-.094.03-.161.03-.253a.3.3 0 0 1 .064-.205.196.196 0 0 1 .155-.074Zm.158.268c0-.064-.013-.112-.04-.144a.13.13 0 0 0-.102-.047.126.126 0 0 0-.127.087.345.345 0 0 0-.018.122c0 .059.012.104.036.134a.116.116 0 0 0 .096.047.136.136 0 0 0 .134-.086.281.281 0 0 0 .021-.113Z" style="fill-rule:nonzero" transform="matrix(36.82024 0 0 36.82027 267.033 110.221)"/><path d="M.272-.057c.058 0 .098-.022.12-.066A.337.337 0 0 0 .424-.27a.255.255 0 0 0-.023-.119C.376-.437.333-.461.273-.461c-.054 0-.093.02-.117.061a.282.282 0 0 0-.037.149c0 .055.012.102.037.139.024.037.063.055.116.055Zm.003-.481c.068 0 .125.022.171.067.047.045.07.111.07.199a.34.34 0 0 1-.061.209C.414-.008.35.019.264.019a.217.217 0 0 1-.172-.073.29.29 0 0 1-.063-.196.31.31 0 0 1 .067-.21.223.223 0 0 1 .179-.078Z" style="fill-rule:nonzero" transform="matrix(36.82024 0 0 36.82027 285.667 110.221)"/><path d="M.085-.106h.102V0H.085z" style="fill-rule:nonzero" transform="matrix(36.82024 0 0 36.82027 304.304 110.221)"/><path d="M.064-.523h.087v.074a.326.326 0 0 1 .057-.056.17.17 0 0 1 .099-.03c.041 0 .075.011.1.031a.145.145 0 0 1 .039.052.189.189 0 0 1 .158-.083c.07 0 .118.026.144.077.013.027.02.064.02.11V0H.677v-.363c0-.035-.009-.059-.026-.072a.106.106 0 0 0-.064-.02.126.126 0 0 0-.089.035C.473-.397.46-.358.46-.304V0H.371v-.341a.169.169 0 0 0-.013-.078C.345-.443.32-.456.284-.456a.127.127 0 0 0-.091.039c-.027.026-.041.072-.041.14V0H.064v-.523Z" style="fill-rule:nonzero" transform="matrix(36.82024 0 0 36.82027 312.693 110.221)"/><path d="M.282-.535c.037 0 .073.009.108.026.035.018.061.04.08.068a.242.242 0 0 1 .035.092.625.625 0 0 1 .008.116H.129a.228.228 0 0 0 .038.127c.023.032.06.048.109.048a.142.142 0 0 0 .11-.045.172.172 0 0 0 .033-.061h.086a.226.226 0 0 1-.066.122.199.199 0 0 1-.099.053.308.308 0 0 1-.071.008.22.22 0 0 1-.166-.071.28.28 0 0 1-.068-.199.3.3 0 0 1 .069-.205.226.226 0 0 1 .178-.079Zm.14.232a.224.224 0 0 0-.025-.092C.373-.437.333-.458.277-.458a.135.135 0 0 0-.102.044.163.163 0 0 0-.043.111h.29Z" style="fill-rule:nonzero" transform="matrix(36.82024 0 0 36.82027 341.523 110.221)"/><path d="M.584-.054A.294.294 0 0 1 .378.02a.307.307 0 0 1-.244-.1.398.398 0 0 1-.089-.274c0-.126.034-.222.101-.291A.302.302 0 0 1 .37-.733c.121 0 .209.039.265.119a.252.252 0 0 1 .05.134h-.15a.21.21 0 0 0-.038-.078C.47-.589.429-.605.375-.605a.152.152 0 0 0-.129.066.323.323 0 0 0-.047.187c0 .081.016.142.05.182.033.04.076.06.127.06.053 0 .093-.017.121-.052a.222.222 0 0 0 .038-.083h.149a.326.326 0 0 1-.1.191Z" style="fill-rule:nonzero" transform="matrix(64.30505 0 0 64.30507 271.615 73.704)"/><path d="M.395.02C.292.02.213-.008.159-.064.086-.133.049-.232.049-.361c0-.132.037-.231.11-.297.054-.056.133-.084.236-.084.102 0 .181.028.235.084.073.066.109.165.109.297 0 .129-.036.228-.109.297C.576-.008.497.02.395.02Zm.142-.193a.303.303 0 0 0 .052-.188.293.293 0 0 0-.053-.187.17.17 0 0 0-.141-.066.173.173 0 0 0-.143.066c-.036.044-.053.106-.053.187a.29.29 0 0 0 .053.188.173.173 0 0 0 .143.066.174.174 0 0 0 .142-.066Z" style="fill-rule:nonzero" transform="matrix(64.30505 0 0 64.30507 314.839 73.704)"/><path d="M.214 0h-.14v-.72h.218l.131.566.13-.566H.77V0H.629v-.487L.63-.546v-.058L.494 0H.348L.213-.604v.058l.001.059V0Z" style="fill-rule:nonzero" transform="matrix(64.30505 0 0 64.30507 361.642 73.704)"/><path d="M.382-.259H.229V0H.08v-.72h.313c.072 0 .13.019.173.056.043.037.064.095.064.172 0 .085-.021.145-.064.18-.043.036-.104.053-.184.053Zm.07-.15c.02-.017.029-.044.029-.082 0-.037-.009-.064-.029-.08a.128.128 0 0 0-.083-.024h-.14v.212h.14c.036 0 .063-.008.083-.026Z" style="fill-rule:nonzero" transform="matrix(64.30505 0 0 64.30507 411.993 73.704)"/><path d="M.498-.148H.232L.183 0H.025l.257-.72h.17L.707 0H.544L.498-.148ZM.456-.272l-.09-.283-.093.283h.183Z" style="fill-rule:nonzero" transform="matrix(64.30505 0 0 64.30507 447.168 73.704)"/><path d="M.658 0h-.15L.214-.511V0h-.14v-.72h.157l.287.503V-.72h.14V0Z" style="fill-rule:nonzero" transform="matrix(64.30505 0 0 64.30507 490.391 73.704)"/><path d="m.657-.72-.24.449V0H.266v-.271L.017-.72h.177l.15.314.143-.314h.17Z" style="fill-rule:nonzero" transform="matrix(64.30505 0 0 64.30507 533.615 73.704)"/><path d="M75.003.003c-41.42 0-75 33.58-75 75 0 41.394 33.606 75 75 75 41.421 0 75-33.579 75-75h-37.539c0 20.69-16.771 37.461-37.46 37.461-20.677 0-37.462-16.785-37.462-37.46 0-20.69 16.772-37.462 37.461-37.462V.003Z"/><path d="M149.994 0h-63.16v21.055A42.097 42.097 0 0 0 99.173 50.83a42.09 42.09 0 0 0 29.766 12.333h21.056V0Z"/></svg>